<?xml version="1.0" encoding="UTF-8"?><svg id="a" xmlns="http://www.w3.org/2000/svg" viewBox="0 0 147.94 32.48"><defs><style>.b{fill:#fff;}.c{fill:#f6a316;}</style></defs><path class="b" d="M.07,31.65c2.38-.02,4.77-.04,7.15-.05l-.03-11.87,14.24-.03v-6.61l-14.14,.03V7.42l14.52-.03V.83L0,.88,.07,31.65Z"/><path class="b" d="M54.72,10.59c-.01-1.41-.31-2.77-.87-4.02-1.61-3.58-5.35-5.74-9.27-5.74h-14.94V31.65h7.47v-10.02h3.63l5.8,10.02h8.18l-6.61-11.58c3.98-1.53,6.63-5.32,6.61-9.48Zm-10.54,3.45h-7.02c-.01-2.19-.02-4.39-.05-6.58h7.3c1.59,.31,2.74,1.73,2.71,3.33-.04,1.65-1.3,3.05-2.95,3.25Z"/><rect class="b" x="62.94" y="13.16" width="6.76" height="18.49"/><polygon class="c" points="63.27 .83 69.9 .83 69.9 7.45 63.27 .83"/><path class="b" d="M92.35,20.14v-6.1h15.36c.44,1.18,1.29,3.99,.61,7.47-.25,1.26-1.05,4.44-3.78,7.11-4.38,4.28-10.26,3.88-11.65,3.78-1.34-.09-7.19-.66-11.43-5.67-3.53-4.18-4.88-10.18-2.95-15.74,1.96-5.67,6.93-9.75,12.71-10.67,6.48-1.03,13.05,2.05,16.57,7.79l-6.43,3.33c-.4-.55-2.4-3.17-5.98-3.71-3.1-.47-6.63,.73-8.63,3.71-2.05,3.05-1.84,6.99,.08,9.76,2.16,3.12,5.69,3.57,6.2,3.63,1.89,.21,3.39-.27,4.18-.54,1.14-.39,2.09-.72,2.78-1.65,.77-1.03,.8-1.99,.78-2.51-2.81,.07-5.62-.07-8.42,0Z"/><path class="b" d="M131.69,0c-8.96,0-16.24,7.27-16.24,16.24s7.28,16.24,16.24,16.24,16.25-7.27,16.25-16.24S140.66,0,131.69,0Zm0,24.61c-4.62,0-8.37-3.75-8.37-8.37s3.75-8.37,8.37-8.37,8.38,3.75,8.38,8.37-3.75,8.37-8.38,8.37Z"/><rect class="b" x="128.15" y="12.44" width="7.6" height="7.6" transform="translate(27.16 98.06) rotate(-45)"/><rect class="c" x="130.14" y="14.43" width="3.62" height="3.62" transform="translate(27.16 98.06) rotate(-45)"/></svg>